<?xml version="1.0"?>
<svg xmlns="http://www.w3.org/2000/svg" viewBox="0 0 32 32" width="432" height="432" shape-rendering="crispEdges">
  <title>This Is The Journey — App Icon</title>
  <rect x="18" y="2" width="1" height="1" fill="#1B1410"></rect>
  <rect x="19" y="2" width="7" height="1" fill="#E63946"></rect>
  <rect x="18" y="3" width="1" height="1" fill="#1B1410"></rect>
  <rect x="19" y="3" width="2" height="1" fill="#E63946"></rect>
  <rect x="21" y="3" width="1" height="1" fill="#FFCB05"></rect>
  <rect x="22" y="3" width="4" height="1" fill="#E63946"></rect>
  <rect x="4" y="4" width="3" height="1" fill="#FFCB05"></rect>
  <rect x="18" y="4" width="1" height="1" fill="#1B1410"></rect>
  <rect x="19" y="4" width="6" height="1" fill="#E63946"></rect>
  <rect x="25" y="4" width="4" height="1" fill="#FFFFFF"></rect>
  <rect x="3" y="5" width="5" height="1" fill="#FFCB05"></rect>
  <rect x="18" y="5" width="1" height="1" fill="#1B1410"></rect>
  <rect x="19" y="5" width="4" height="1" fill="#C62A38"></rect>
  <rect x="23" y="5" width="7" height="1" fill="#FFFFFF"></rect>
  <rect x="2" y="6" width="7" height="1" fill="#FFCB05"></rect>
  <rect x="18" y="6" width="1" height="1" fill="#1B1410"></rect>
  <rect x="23" y="6" width="7" height="1" fill="#E8EEF5"></rect>
  <rect x="2" y="7" width="7" height="1" fill="#FFCB05"></rect>
  <rect x="18" y="7" width="1" height="1" fill="#FFFFFF"></rect>
  <rect x="2" y="8" width="7" height="1" fill="#FFCB05"></rect>
  <rect x="17" y="8" width="3" height="1" fill="#FFFFFF"></rect>
  <rect x="3" y="9" width="1" height="1" fill="#E0A800"></rect>
  <rect x="4" y="9" width="3" height="1" fill="#FFCB05"></rect>
  <rect x="7" y="9" width="1" height="1" fill="#E0A800"></rect>
  <rect x="16" y="9" width="5" height="1" fill="#FFFFFF"></rect>
  <rect x="4" y="10" width="3" height="1" fill="#E0A800"></rect>
  <rect x="16" y="10" width="3" height="1" fill="#FFFFFF"></rect>
  <rect x="19" y="10" width="1" height="1" fill="#E8EEF5"></rect>
  <rect x="20" y="10" width="2" height="1" fill="#FFFFFF"></rect>
  <rect x="15" y="11" width="5" height="1" fill="#FFFFFF"></rect>
  <rect x="20" y="11" width="1" height="1" fill="#E8EEF5"></rect>
  <rect x="21" y="11" width="1" height="1" fill="#FFFFFF"></rect>
  <rect x="14" y="12" width="1" height="1" fill="#0F1A2E"></rect>
  <rect x="15" y="12" width="1" height="1" fill="#FFFFFF"></rect>
  <rect x="16" y="12" width="1" height="1" fill="#0F1A2E"></rect>
  <rect x="17" y="12" width="1" height="1" fill="#FFFFFF"></rect>
  <rect x="18" y="12" width="1" height="1" fill="#0F1A2E"></rect>
  <rect x="19" y="12" width="1" height="1" fill="#FFFFFF"></rect>
  <rect x="20" y="12" width="1" height="1" fill="#0F1A2E"></rect>
  <rect x="21" y="12" width="1" height="1" fill="#FFFFFF"></rect>
  <rect x="9" y="13" width="1" height="1" fill="#E8EEF5"></rect>
  <rect x="14" y="13" width="4" height="1" fill="#0F1A2E"></rect>
  <rect x="18" y="13" width="1" height="1" fill="#FFF8EC"></rect>
  <rect x="19" y="13" width="4" height="1" fill="#0F1A2E"></rect>
  <rect x="8" y="14" width="3" height="1" fill="#E8EEF5"></rect>
  <rect x="13" y="14" width="10" height="1" fill="#0F1A2E"></rect>
  <rect x="7" y="15" width="5" height="1" fill="#2D3F66"></rect>
  <rect x="12" y="15" width="5" height="1" fill="#0F1A2E"></rect>
  <rect x="17" y="15" width="1" height="1" fill="#FFF8EC"></rect>
  <rect x="18" y="15" width="6" height="1" fill="#0F1A2E"></rect>
  <rect x="6" y="16" width="6" height="1" fill="#2D3F66"></rect>
  <rect x="12" y="16" width="4" height="1" fill="#0F1A2E"></rect>
  <rect x="16" y="16" width="1" height="1" fill="#2D3F66"></rect>
  <rect x="17" y="16" width="8" height="1" fill="#0F1A2E"></rect>
  <rect x="5" y="17" width="6" height="1" fill="#2D3F66"></rect>
  <rect x="11" y="17" width="5" height="1" fill="#0F1A2E"></rect>
  <rect x="16" y="17" width="1" height="1" fill="#2D3F66"></rect>
  <rect x="17" y="17" width="1" height="1" fill="#FFF8EC"></rect>
  <rect x="18" y="17" width="7" height="1" fill="#0F1A2E"></rect>
  <rect x="4" y="18" width="6" height="1" fill="#2D3F66"></rect>
  <rect x="10" y="18" width="5" height="1" fill="#0F1A2E"></rect>
  <rect x="15" y="18" width="1" height="1" fill="#2D3F66"></rect>
  <rect x="16" y="18" width="10" height="1" fill="#0F1A2E"></rect>
  <rect x="4" y="19" width="6" height="1" fill="#2D3F66"></rect>
  <rect x="10" y="19" width="5" height="1" fill="#0F1A2E"></rect>
  <rect x="15" y="19" width="1" height="1" fill="#2D3F66"></rect>
  <rect x="16" y="19" width="1" height="1" fill="#0F1A2E"></rect>
  <rect x="17" y="19" width="1" height="1" fill="#FFF8EC"></rect>
  <rect x="18" y="19" width="8" height="1" fill="#0F1A2E"></rect>
  <rect x="3" y="20" width="6" height="1" fill="#2D3F66"></rect>
  <rect x="9" y="20" width="5" height="1" fill="#0F1A2E"></rect>
  <rect x="14" y="20" width="1" height="1" fill="#2D3F66"></rect>
  <rect x="15" y="20" width="12" height="1" fill="#0F1A2E"></rect>
  <rect x="2" y="21" width="6" height="1" fill="#2D3F66"></rect>
  <rect x="8" y="21" width="6" height="1" fill="#0F1A2E"></rect>
  <rect x="14" y="21" width="1" height="1" fill="#2D3F66"></rect>
  <rect x="15" y="21" width="2" height="1" fill="#0F1A2E"></rect>
  <rect x="17" y="21" width="1" height="1" fill="#FFF8EC"></rect>
  <rect x="18" y="21" width="9" height="1" fill="#0F1A2E"></rect>
  <rect x="1" y="22" width="7" height="1" fill="#2D3F66"></rect>
  <rect x="8" y="22" width="5" height="1" fill="#0F1A2E"></rect>
  <rect x="13" y="22" width="1" height="1" fill="#2D3F66"></rect>
  <rect x="14" y="22" width="14" height="1" fill="#0F1A2E"></rect>
  <rect x="0" y="23" width="7" height="1" fill="#2D3F66"></rect>
  <rect x="7" y="23" width="5" height="1" fill="#0F1A2E"></rect>
  <rect x="12" y="23" width="1" height="1" fill="#2D3F66"></rect>
  <rect x="13" y="23" width="3" height="1" fill="#0F1A2E"></rect>
  <rect x="16" y="23" width="1" height="1" fill="#FFF8EC"></rect>
  <rect x="17" y="23" width="12" height="1" fill="#0F1A2E"></rect>
  <rect x="0" y="24" width="6" height="1" fill="#2D3F66"></rect>
  <rect x="6" y="24" width="5" height="1" fill="#0F1A2E"></rect>
  <rect x="11" y="24" width="1" height="1" fill="#2D3F66"></rect>
  <rect x="12" y="24" width="4" height="1" fill="#0F1A2E"></rect>
  <rect x="16" y="24" width="1" height="1" fill="#FFF8EC"></rect>
  <rect x="17" y="24" width="12" height="1" fill="#0F1A2E"></rect>
  <rect x="6" y="25" width="4" height="1" fill="#0F1A2E"></rect>
  <rect x="10" y="25" width="1" height="1" fill="#2D3F66"></rect>
  <rect x="11" y="25" width="3" height="1" fill="#0F1A2E"></rect>
  <rect x="14" y="25" width="2" height="1" fill="#FFF8EC"></rect>
  <rect x="16" y="25" width="14" height="1" fill="#0F1A2E"></rect>
  <rect x="5" y="26" width="4" height="1" fill="#0F1A2E"></rect>
  <rect x="9" y="26" width="1" height="1" fill="#2D3F66"></rect>
  <rect x="10" y="26" width="20" height="1" fill="#0F1A2E"></rect>
  <rect x="4" y="27" width="4" height="1" fill="#0F1A2E"></rect>
  <rect x="8" y="27" width="1" height="1" fill="#2D3F66"></rect>
  <rect x="9" y="27" width="4" height="1" fill="#0F1A2E"></rect>
  <rect x="13" y="27" width="2" height="1" fill="#FFF8EC"></rect>
  <rect x="15" y="27" width="16" height="1" fill="#0F1A2E"></rect>
  <rect x="4" y="28" width="6" height="1" fill="#0F1A2E"></rect>
  <rect x="10" y="28" width="3" height="1" fill="#FFF8EC"></rect>
  <rect x="13" y="28" width="18" height="1" fill="#0F1A2E"></rect>
  <rect x="1" y="29" width="1" height="1" fill="#6FB05A"></rect>
  <rect x="3" y="29" width="3" height="1" fill="#0F1A2E"></rect>
  <rect x="6" y="29" width="1" height="1" fill="#6FB05A"></rect>
  <rect x="7" y="29" width="19" height="1" fill="#0F1A2E"></rect>
  <rect x="26" y="29" width="1" height="1" fill="#6FB05A"></rect>
  <rect x="27" y="29" width="1" height="1" fill="#0F1A2E"></rect>
  <rect x="28" y="29" width="1" height="1" fill="#FFCB05"></rect>
  <rect x="29" y="29" width="1" height="1" fill="#0F1A2E"></rect>
  <rect x="30" y="29" width="1" height="1" fill="#6FB05A"></rect>
  <rect x="31" y="29" width="1" height="1" fill="#0F1A2E"></rect>
  <rect x="0" y="30" width="32" height="1" fill="#6FB05A"></rect>
  <rect x="0" y="31" width="32" height="1" fill="#3F7B2E"></rect>
</svg>